<?xml version="1.0" standalone="no"?>
<!DOCTYPE svg PUBLIC "-//W3C//DTD SVG 20010904//EN"
 "http://www.w3.org/TR/2001/REC-SVG-20010904/DTD/svg10.dtd">
<svg version="1.0" xmlns="http://www.w3.org/2000/svg"
 width="260.000000pt" height="260.000000pt" viewBox="0 0 260.000000 260.000000"
 preserveAspectRatio="xMidYMid meet">
<metadata>
Created by potrace 1.14, written by Peter Selinger 2001-2017
</metadata>
<g transform="translate(0.000000,260.000000) scale(0.100000,-0.100000)"
fill="#000000" stroke="none">
<path d="M1490 2464 c-241 -32 -457 -139 -630 -313 -100 -101 -112 -115 -166
-201 -119 -189 -175 -395 -169 -625 4 -181 39 -325 115 -475 38 -74 116 -196
133 -207 7 -4 3 6 -7 22 -57 86 -114 229 -143 358 -25 111 -22 347 6 461 195
805 1146 1092 1725 520 48 -47 83 -74 92 -70 31 12 103 72 101 84 -3 20 -97
123 -163 180 -250 216 -566 310 -894 266z"/>
<path d="M525 2434 c-300 -259 -461 -554 -492 -904 -34 -382 90 -742 349
-1016 285 -301 680 -446 1095 -401 209 22 424 105 611 236 71 51 102 83 40 42
-95 -63 -305 -148 -408 -166 -211 -36 -350 -36 -526 1 -239 49 -445 161 -619
338 -107 108 -173 199 -229 318 -54 114 -63 137 -85 228 -69 283 -34 573 99
829 62 118 186 276 277 352 l32 27 -52 71 c-29 38 -54 70 -57 70 -3 0 -18 -11
-35 -25z"/>
<path d="M1528 2165 c-2 -1 -23 -5 -48 -8 -222 -26 -446 -159 -587 -347 -71
-94 -144 -259 -159 -360 -3 -19 -7 -46 -10 -60 -2 -14 -5 -62 -5 -108 0 -481
387 -876 867 -884 384 -6 728 236 852 598 32 94 42 153 46 269 12 377 -234
731 -593 852 -42 14 -87 27 -101 29 -14 3 -38 7 -55 11 -31 6 -202 13 -207 8z
m246 -71 c22 -8 20 -20 -6 -46 -24 -24 -28 -26 -96 -31 -51 -5 -54 -7 -86 -72
-23 -44 -24 -51 -10 -66 8 -9 13 -27 10 -42 -5 -26 15 -54 59 -83 13 -9 29
-30 35 -48 10 -30 17 -35 83 -55 98 -29 130 -28 162 7 14 15 28 37 32 50 3 15
15 25 34 29 16 3 29 9 29 14 0 22 21 6 37 -28 12 -25 28 -40 50 -47 43 -15 65
-40 92 -106 13 -30 38 -71 56 -90 38 -41 65 -90 65 -120 0 -11 11 -32 25 -46
20 -20 29 -23 44 -14 23 12 29 46 20 110 -4 25 -10 70 -13 100 l-5 55 15 -45
c34 -107 42 -274 19 -397 -73 -382 -410 -667 -799 -677 -228 -6 -440 75 -600
228 -91 88 -125 133 -171 224 -62 125 -83 198 -90 321 -4 54 -2 68 4 49 5 -15
18 -42 29 -60 11 -18 22 -45 26 -60 10 -43 28 -34 20 10 -7 34 -6 36 10 23 9
-8 29 -34 42 -58 20 -33 34 -45 65 -53 26 -7 45 -7 57 -1 10 6 52 8 92 5 65
-4 75 -2 87 16 24 35 50 10 64 -63 16 -79 50 -117 106 -117 26 0 47 -8 67 -25
16 -14 34 -25 40 -26 6 0 35 -2 64 -3 51 -2 56 -5 112 -61 59 -61 143 -131
214 -179 36 -24 85 -34 98 -20 3 3 -16 26 -43 51 -43 41 -49 50 -49 87 0 23
-4 46 -10 52 -6 6 -6 30 -1 64 7 41 5 64 -5 89 -11 27 -12 42 -3 69 10 30 8
40 -15 86 -14 28 -30 80 -34 115 -10 71 -36 105 -76 96 -65 -14 -134 -49 -162
-84 l-22 -26 -15 37 c-17 40 -50 63 -75 53 -9 -4 -46 -11 -80 -15 -43 -6 -70
-15 -83 -28 -10 -11 -26 -23 -36 -26 -10 -3 -26 -26 -36 -50 -10 -24 -27 -52
-38 -62 -19 -17 -21 -16 -52 14 -22 21 -39 30 -52 26 -16 -4 -23 2 -32 25 -15
42 -31 39 -35 -6 -4 -48 -23 -52 -48 -11 -32 53 -21 146 20 168 25 14 26 14
55 -17 21 -22 24 -24 19 -8 -4 11 -13 27 -19 35 -18 22 -26 119 -13 165 6 22
10 53 11 68 0 17 10 39 24 53 21 21 24 52 4 40 -4 -3 -12 -2 -18 2 -17 11 11
44 38 46 12 0 24 6 26 13 5 13 -61 38 -76 29 -5 -4 -12 -3 -15 2 -3 5 -19 7
-36 4 -27 -4 -30 -8 -32 -41 -2 -45 -5 -83 -7 -95 0 -6 -7 -2 -14 9 -8 10 -19
15 -26 11 -21 -13 -23 23 -3 51 10 15 22 40 25 54 5 19 15 28 37 32 33 7 42
40 14 51 -15 6 -15 8 1 26 22 24 31 25 69 5 40 -21 46 -11 50 70 1 23 10 37
41 58 72 50 128 75 155 67 25 -7 38 -6 78 6 16 5 22 2 22 -10 0 -12 -9 -16
-36 -16 -24 0 -34 -4 -31 -12 2 -8 22 -13 48 -14 24 0 47 -2 52 -3 4 -2 13 -4
19 -5 7 0 15 -14 18 -31 4 -25 10 -31 36 -33 43 -4 62 20 47 59 -14 36 6 61
46 59 40 -3 47 -1 31 11 -11 8 -3 9 33 6 37 -4 47 -2 43 8 -2 7 -2 16 1 19 8
8 57 8 77 0z m-1001 -734 c3 -11 1 -23 -4 -26 -5 -3 -9 6 -9 20 0 31 6 34 13
6z"/>
</g>
</svg>
